<?xml version="1.0" encoding="UTF-8" standalone="no"?>
<svg
   xmlns:dc="http://purl.org/dc/elements/1.1/"
   xmlns:cc="http://creativecommons.org/ns#"
   xmlns:rdf="http://www.w3.org/1999/02/22-rdf-syntax-ns#"
   xmlns:svg="http://www.w3.org/2000/svg"
   xmlns="http://www.w3.org/2000/svg"
   id="svg3876"
   version="1.1"
   viewBox="0 0 30 30"
   height="30"
   width="30">
  <metadata
     id="metadata3892">
    <rdf:RDF>
      <cc:Work
         rdf:about="">
        <dc:format>image/svg+xml</dc:format>
        <dc:type
           rdf:resource="http://purl.org/dc/dcmitype/StillImage" />
        <dc:title>ExpandPlayer</dc:title>
      </cc:Work>
    </rdf:RDF>
  </metadata>
  <!-- Generator: Sketch 51.1 (57501) - http://www.bohemiancoding.com/sketch -->
  <title
     id="title3878">ExpandPlayer</title>
  <desc
     id="desc3880">Created with Sketch.</desc>
  <defs
     id="defs3882" />
  <g
     transform="translate(4,4)"
     style="fill:#ffffff;fill-rule:evenodd;stroke:none;stroke-width:1"
     id="Page-1">
    <g
       style="fill:#ffffff"
       transform="translate(-233,-20)"
       id="BritishLibraryIcons">
      <g
         style="fill:#ffffff"
         transform="translate(233,20)"
         id="ExpandPlayer">
        <polygon
           style="fill:#ffffff"
           points="22,2.3665827e-030 13.908889,2.3665827e-030 13.908889,2 18,2 5.8177778,14.458889 7.5411111,16.182222 20,4 20,8.5555556 22,8.5555556 "
           id="Path" />
        <path
           style="fill:#ffffff"
           id="path3888"
           d="M 20,20 2,20 2,2 11,2 11,0 C 3.6666667,0 0,0 0,0 c 0,15 0,22.333333 0,22 14.666667,0 22,0 22,0 L 22,11 20,11.0054 20,20 Z" />
      </g>
    </g>
  </g>
</svg>
